<svg id="Layer_1" enable-background="new 0 0 512 512" height="512" viewBox="0 0 512 512" width="512" xmlns="http://www.w3.org/2000/svg"><g><g><path d="m253.323 169.725h-222.157v-64.913c0-8.284 6.716-15 15-15h192.156c8.284 0 15 6.716 15 15v64.913z" fill="#695e66"/></g><g><path d="m238.327 89.812h-14.527v79.913h29.522v-64.918c.001-8.281-6.713-14.995-14.995-14.995z" fill="#453e43"/></g><g><path d="m218.326 163.13v-137.945c0-1.902-2.213-2.948-3.682-1.74l-10.107 8.307c-.831.683-2.029.683-2.86 0l-12.359-10.158c-.831-.683-2.029-.683-2.86 0l-12.358 10.158c-.831.683-2.029.683-2.86 0l-12.356-10.158c-.831-.683-2.029-.683-2.86 0l-12.356 10.158c-.831.683-2.029.683-2.86 0l-12.356-10.157c-.831-.683-2.029-.683-2.861 0l-12.354 10.157c-.831.683-2.03.683-2.861 0l-12.354-10.157c-.831-.683-2.03-.683-2.861 0l-12.352 10.157c-.831.683-2.03.683-2.861 0l-10.102-8.305c-1.47-1.208-3.683-.163-3.683 1.74v137.943z" fill="#efecef"/></g><g><path d="m214.644 23.445-10.107 8.307c-.831.683-2.029.683-2.86 0l-9.121-7.497v138.875h25.77v-137.945c0-1.902-2.213-2.948-3.682-1.74z" fill="#d3ced5"/></g><g><path d="m31.166 336.949h222.156v64.913c0 8.284-6.716 15-15 15h-192.156c-8.284 0-15-6.716-15-15z" fill="#695e66"/></g><g><path d="m222.62 382.687h-160.751c-30.028 0-54.371-24.343-54.371-54.371v-156.234c0-7.852 6.366-14.218 14.218-14.218h241.058c7.852 0 14.218 6.366 14.218 14.218v156.234c-.001 30.029-24.343 54.371-54.372 54.371z" fill="#695e66"/></g><g><path d="m262.778 157.864h-38.798c7.85 0 14.213 6.363 14.213 14.213v156.256c0 30.019-24.335 54.354-54.354 54.354h38.798c30.019 0 54.354-24.335 54.354-54.354v-156.256c0-7.85-6.363-14.213-14.213-14.213z" fill="#453e43"/></g><g><path d="m60.848 240.924h162.794c2.761 0 4.998-2.238 4.998-4.998v-43.208c0-2.761-2.238-4.998-4.998-4.998h-162.794c-2.761 0-4.998 2.238-4.998 4.998v43.208c0 2.76 2.237 4.998 4.998 4.998z" fill="#bed8fb"/></g><g><path d="m223.642 187.719h-12.336v30.871c0 2.761-2.238 4.998-4.998 4.998h-150.458v12.336c0 2.761 2.238 4.998 4.998 4.998h162.794c2.761 0 4.998-2.238 4.998-4.998v-43.208c0-2.759-2.238-4.997-4.998-4.997z" fill="#80b4fb"/></g><g><g><path d="m73.246 310.893h-23.834c-2.761 0-5-2.239-5-5v-23.835c0-2.761 2.239-5 5-5h23.835c2.761 0 5 2.239 5 5v23.835c-.001 2.762-2.24 5-5.001 5z" fill="#f9efaf"/></g><g><path d="m73.248 277.059h-5.006v19.611c0 2.33-1.889 4.219-4.219 4.219h-19.611v5.006c0 2.761 2.238 4.998 4.998 4.998h23.838c2.761 0 4.998-2.238 4.998-4.998v-23.838c0-2.76-2.238-4.998-4.998-4.998z" fill="#f6e266"/></g></g><g><g><path d="m494.503 490.912h-376.437c-5.523 0-10-4.477-10-10v-193.853c0-5.523 4.477-10 10-10h376.436c5.523 0 10 4.477 10 10v193.853c.001 5.522-4.477 10-9.999 10z" fill="#b3e59f"/></g><g><path d="m494.506 277.059h-18.798v175.061c0 5.521-4.476 9.997-9.997 9.997h-291.609c3.325 8.227 5.158 17.217 5.158 26.637 0 .724-.033 1.439-.055 2.158h315.301c5.521 0 9.997-4.476 9.997-9.997v-193.859c0-5.522-4.476-9.997-9.997-9.997z" fill="#95d6a4"/></g><g><circle cx="306.285" cy="383.985" fill="#95d6a4" r="71.194"/></g><g><path d="m108.066 287.056v193.859c0 5.521 4.476 9.997 9.997 9.997h61.142c.021-.719.055-1.434.055-2.158 0-25.262-13.167-47.437-33.004-60.072-1.433-.913-2.295-2.498-2.295-4.197v-83.156c0-1.695.856-3.281 2.286-4.191 19.841-12.634 33.003-34.813 33.004-60.078h-61.188c-5.521-.001-9.997 4.474-9.997 9.996z" fill="#95d6a4"/></g><g><path d="m466.062 336.974c1.414.909 2.253 2.49 2.253 4.171v83.522c0 1.687-.848 3.266-2.266 4.179-20.14 12.953-33.332 35.77-32.719 61.634.003.145.017.286.021.431h61.155c5.521 0 9.997-4.476 9.997-9.997v-193.858c0-5.521-4.476-9.997-9.997-9.997h-61.197c0 25.156 13.055 47.253 32.753 59.915z" fill="#95d6a4"/></g><g><path d="m494.506 277.059h-18.798v175.061c0 5.521-4.476 9.997-9.997 9.997h-27.238c-3.528 8.73-5.382 18.315-5.144 28.364.003.145.017.286.021.431h61.155c5.521 0 9.997-4.476 9.997-9.997v-193.859c.001-5.522-4.475-9.997-9.996-9.997z" fill="#78c2a4"/></g><g><path d="m108.066 462.117v18.798c0 5.521 4.476 9.997 9.997 9.997h61.142c.021-.719.055-1.434.055-2.158 0-9.42-1.833-18.41-5.158-26.637z" fill="#78c2a4"/></g></g><g><path d="m102.601 81.003h35.427c4.141 0 7.498-3.357 7.498-7.498s-3.357-7.498-7.498-7.498h-35.427c-4.141 0-7.498 3.357-7.498 7.498s3.357 7.498 7.498 7.498z"/><path d="m102.601 112.212h35.427c4.141 0 7.498-3.357 7.498-7.498s-3.357-7.498-7.498-7.498h-35.427c-4.141 0-7.498 3.357-7.498 7.498s3.357 7.498 7.498 7.498z"/><path d="m60.848 248.421h162.794c6.89 0 12.496-5.606 12.496-12.496v-43.208c0-6.89-5.606-12.496-12.496-12.496h-162.794c-6.89 0-12.496 5.606-12.496 12.496v43.208c0 6.891 5.605 12.496 12.496 12.496zm2.499-53.204h157.795v38.21h-157.795z"/><path d="m36.914 282.057v23.838c0 6.89 5.606 12.496 12.496 12.496h23.838c6.89 0 12.496-5.606 12.496-12.496v-23.838c0-6.89-5.606-12.496-12.496-12.496h-23.838c-6.89 0-12.496 5.606-12.496 12.496zm14.995 2.499h18.839v18.839h-18.839z"/><path d="m494.506 269.561h-210.017v-97.484c0-11.971-9.74-21.711-21.711-21.711h-1.958v-45.559c0-12.403-10.09-22.493-22.493-22.493h-12.504v-57.129c0-3.81-2.14-7.188-5.585-8.815-3.446-1.628-7.414-1.136-10.356 1.283l-6.776 5.57-9.028-7.42c-3.586-2.949-8.793-2.95-12.383 0l-9.026 7.42-9.027-7.421c-3.587-2.947-8.795-2.946-12.381.002l-9.025 7.42-9.025-7.419c-3.589-2.95-8.797-2.949-12.383 0l-9.023 7.418-9.023-7.418c-3.588-2.949-8.796-2.95-12.384 0l-9.021 7.418-6.771-5.566c-2.942-2.42-6.911-2.912-10.356-1.285s-5.586 5.005-5.586 8.816v57.128h-12.502c-12.403 0-22.493 10.09-22.493 22.493v45.559h-1.957c-11.972-.002-21.712 9.738-21.712 21.709v34.962c0 4.141 3.357 7.498 7.498 7.498s7.498-3.357 7.498-7.498v-34.962c0-3.703 3.013-6.716 6.716-6.716h241.067c3.703 0 6.716 3.013 6.716 6.716v97.484h-151.432c-9.646 0-17.494 7.848-17.494 17.494v88.134h-38.717c-25.837 0-46.857-21.02-46.857-46.856v-85.619c0-4.141-3.357-7.498-7.498-7.498s-7.497 3.358-7.497 7.499v85.619c0 19.703 9.272 37.27 23.669 48.604v24.929c0 12.403 10.09 22.493 22.493 22.493h54.407v56.555c0 9.646 7.848 17.494 17.494 17.494h76.317c4.141 0 7.498-3.357 7.498-7.498s-3.357-7.498-7.498-7.498h-7.805c-1.638-24.47-14.478-46.639-35.116-60.294v-80.428c20.026-13.249 32.709-34.52 34.937-58.136h239.771c2.219 23.482 14.798 44.68 34.651 57.944v80.81c-20.554 13.727-33.211 35.741-34.826 60.103h-193.451c-4.141 0-7.498 3.357-7.498 7.498s3.357 7.498 7.498 7.498h261.965c9.646 0 17.494-7.848 17.494-17.494v-193.858c0-9.647-7.848-17.495-17.494-17.495zm-256.179-172.252c4.134 0 7.498 3.363 7.498 7.498v45.559h-20.001v-53.057zm-163.141-59.767c3.589 2.951 8.797 2.952 12.386 0l9.021-7.418 9.023 7.418c3.588 2.949 8.795 2.949 12.384 0l9.023-7.418 9.027 7.42c3.586 2.945 8.792 2.946 12.381-.002l9.025-7.42 9.027 7.421c3.588 2.947 8.796 2.946 12.381-.001l9.026-7.42 9.027 7.42c3.588 2.95 8.796 2.949 12.382 0l1.531-1.258v114.08h-137.169v-114.075zm-36.522 67.265c0-4.134 3.363-7.498 7.498-7.498h12.504v53.057h-20.002zm7.498 304.557c-4.134 0-7.498-3.363-7.498-7.498v-16.209c7.166 2.909 14.99 4.527 23.188 4.527h38.717v19.179h-54.407zm96.056-78.55c-3.604 2.296-5.755 6.226-5.755 10.514v83.157c0 4.288 2.155 8.221 5.765 10.521 16.977 10.814 27.666 28.635 29.306 48.409h-53.471c-1.378 0-2.499-1.121-2.499-2.499v-193.86c0-1.378 1.121-2.499 2.499-2.499h53.247c-2.213 18.914-12.734 35.841-29.092 46.257zm354.787 150.101c0 1.378-1.121 2.499-2.499 2.499h-53.474c1.62-19.687 12.16-37.385 29.073-48.262 3.574-2.299 5.708-6.219 5.708-10.484v-83.522c0-4.268-2.129-8.184-5.696-10.479-16.223-10.428-26.661-27.3-28.867-46.111h53.256c1.378 0 2.499 1.121 2.499 2.499z"/><path d="m350.295 327.522c2.193-3.513 1.123-8.138-2.389-10.331-12.466-7.783-26.859-11.897-41.622-11.897-43.39 0-78.691 35.301-78.691 78.691s35.301 78.691 78.691 78.691 78.691-35.301 78.691-78.691c0-13.22-3.343-26.298-9.669-37.819-1.993-3.63-6.55-4.957-10.18-2.964s-4.957 6.551-2.964 10.18c5.115 9.316 7.818 19.898 7.818 30.603 0 35.122-28.574 63.696-63.696 63.696s-63.696-28.574-63.696-63.696 28.574-63.696 63.696-63.696c11.952 0 23.598 3.327 33.681 9.621 3.513 2.194 8.137 1.124 10.33-2.388z"/><path d="m307.176 426.906c4.103-.123 7.267-3.703 7.267-7.809v-1.32c7.439-2.673 13.116-9.163 14.49-17.34 1.701-10.115-3.775-19.251-13.625-22.733-4.828-1.706-10.149-3.754-13.009-5.998-.226-.177-.562-1.091-.316-2.399.12-.635.669-2.755 2.719-3.373 4.843-1.457 7.918.941 8.253 1.219l-.131-.117 1.661.706c7.264 3.086 13.696-5.782 8.506-11.728-1.697-1.565-4.679-3.458-8.549-4.575v-.375c0-4.105-3.163-7.685-7.267-7.809-4.246-.127-7.728 3.277-7.728 7.494v1.144c-6.272 2.261-10.908 7.781-12.2 14.637-1.258 6.679.963 13.183 5.797 16.974 4.554 3.573 10.99 6.118 17.266 8.337 3.793 1.341 4.179 4.062 3.835 6.109-.382 2.273-2.339 6.127-7.25 6.16-4.939.032-6.198-.145-9.704-2.409-3.434-2.218-8.13-1.558-10.485 1.783-2.457 3.486-1.52 8.284 2.02 10.599 4.034 2.639 7.223 3.941 10.722 4.547v.78c0 4.219 3.482 7.623 7.728 7.496z"/></g></g></svg>